# xmcd
#
# Track frame offsets:
# 150
# 15477
# 29547
# 46955
# 57982
# 74798
# 88250
# 103479
# 115593
# 126187
# 140635
# 157657
# 169519
# 182717
# 192376
# 203581
# 216081
# 228156
# 240309
# 251591
# 265676
# 279826
# 294025
#
# Disc length: 4100 seconds
#
#
# Revision: 0
# Processed by: cddbd v1.5.1PL2 Copyright (c) Steve Scherf et al.
# Submitted via: FreeRIP 2.945 
#
DISCID=42100217
DTITLE=Gene Watson - The Ultimate Collection
DYEAR=2001
DGENRE=Country
TTITLE0=Love In The Hot Afternoon
TTITLE1=Where Love Begins
TTITLE2=Paper Rosie
TTITLE3=Pick The Wildwood Flower
TTITLE4=Nothing Sure Looked Good On You
TTITLE5=Between This Time and the Next Time
TTITLE6=Maybe I Should Have Been Listening
TTITLE7=Fourteen Carat Mind
TTITLE8=Speak Softly (You're Talking To My Heart)
TTITLE9=This Dream's On Me
TTITLE10=What She Don't KNow Won't Hurt Her
TTITLE11=You're Out Doing What I'm Here Doing Without
TTITLE12=Sometimes I Get Lucky And Forget
TTITLE13=Drinkin' My Way Back Home
TTITLE14=Forever Again
TTITLE15=Got No Reason Now For Goin' Home
TTITLE16=Cold Summers Day In Georgia
TTITLE17=Memories To Burn
TTITLE18=Everything I Used to Do
TTITLE19=Everybody Needs a Hero
TTITLE20=Don't Waste It On The Blues
TTITLE21=Back In The Fire
TTITLE22=The Jukebox Played Along
EXTD=
EXTT0=
EXTT1=
EXTT2=
EXTT3=
EXTT4=
EXTT5=
EXTT6=
EXTT7=
EXTT8=
EXTT9=
EXTT10=
EXTT11=
EXTT12=
EXTT13=
EXTT14=
EXTT15=
EXTT16=
EXTT17=
EXTT18=
EXTT19=
EXTT20=
EXTT21=
EXTT22=
PLAYORDER=
